<svg width="542" height="104" viewBox="0 0 542 104" fill="none" xmlns="http://www.w3.org/2000/svg">
<path d="M484 79.9489L463.5 79.4489L486.482 8.72159H513.47L537 82.4489L516.169 81.4489L500.26 28.75H499.692L484 79.9489ZM479.805 52.7557H519.862V67.5284H479.805V52.7557Z" fill="#EEEEEE"/>
<path d="M435.585 78.6862V24.9489L445 21.4489L455.187 24.9489V79.1937L435.585 78.6862ZM445.244 17.8977C442.592 17.8977 440.32 17.0218 438.426 15.2699C436.532 13.518 435.585 11.411 435.585 8.94886C435.585 6.48674 436.532 4.37974 438.426 2.62784C440.32 0.875948 442.592 1.90735e-06 445.244 1.90735e-06C447.919 1.90735e-06 450.192 0.875948 452.062 2.62784C453.956 4.37974 454.903 6.48674 454.903 8.94886C454.903 11.411 453.956 13.518 452.062 15.2699C450.192 17.0218 447.919 17.8977 445.244 17.8977Z" fill="#EEEEEE"/>
<path d="M426.654 44.6591H408.614C408.519 43.5464 408.129 42.5876 407.442 41.7827C406.756 40.9777 405.868 40.3622 404.779 39.9361C403.713 39.4863 402.53 39.2614 401.228 39.2614C399.547 39.2614 398.103 39.5691 396.895 40.1847C395.688 40.8002 395.096 41.6761 395.12 42.8125C395.096 43.6174 395.439 44.3632 396.15 45.0497C396.883 45.7363 398.292 46.2689 400.375 46.6477L411.455 48.6364C417.042 49.6544 421.197 51.3707 423.919 53.7855C426.666 56.1766 428.051 59.3845 428.074 63.4091C428.051 67.2917 427.796 68.0843 425.5 70.9489C423.227 73.7898 422.954 74.8864 419 76.4489C415.07 77.9877 406.98 77.9489 401.938 77.9489C393.605 77.9489 385.711 77.358 381 73.9489C376.312 70.5398 374.926 69.4223 374.381 63.8352H393.841C394.102 65.5634 394.954 66.901 396.398 67.848C397.866 68.7713 399.712 69.233 401.938 69.233C403.737 69.233 405.217 68.9252 406.377 68.3097C407.56 67.6941 408.164 66.8182 408.188 65.6818C408.164 64.6402 407.643 63.8116 406.625 63.196C405.631 62.5805 404.069 62.0833 401.938 61.7046L392.279 60C386.715 59.0294 382.549 57.1828 379.779 54.4602C377.009 51.7377 375.636 48.2339 375.659 43.9489C375.636 40.161 376.63 36.9531 378.642 34.3253C380.678 31.6738 383.236 29.322 387 27.9489C390.788 26.5521 395.315 24.9489 400.5 24.9489C408.384 24.9489 413.955 26.6818 418.5 29.9489C423.069 33.2159 426.417 38.8826 426.654 44.6591Z" fill="#EEEEEE"/>
<path fill-rule="evenodd" clip-rule="evenodd" d="M333 76.9489C329.52 76.9489 325.675 77.0852 323 75.9489C320.349 74.7888 318.803 74.7926 317.288 72.4489C315.773 70.1051 315.157 70.0142 315.157 66.3921C315.157 63.4091 315.666 60.8641 316.684 58.7571C317.702 56.6264 319.122 54.8864 320.945 53.5369C322.768 52.1875 324.887 51.1577 327.302 50.4475C329.74 49.7372 332.368 49.2756 335.185 49.0625C338.239 48.8258 340.69 48.5417 342.536 48.2102C344.407 47.8551 345.756 47.3698 346.585 46.7543C347.413 46.1151 347.827 45.2746 347.827 44.233V44.0909C347.827 42.6705 347.283 41.5814 346.194 40.8239C345.105 40.0663 343.708 39.6875 342.004 39.6875C340.133 39.6875 338.606 40.1018 337.423 40.9304C336.263 41.7353 335.564 42.9782 335.327 44.6591H317.288C317.524 41.3447 318.578 38.2907 320.448 35.4972C322.342 32.6799 325.1 30.4309 328.722 28.75C332.344 27.0455 336.866 26.1932 342.288 26.1932C346.194 26.1932 349.698 26.6548 352.799 27.5781C355.9 28.4778 358.54 29.7443 360.718 31.3778C362.896 32.9877 364.553 34.8816 365.69 37.0597C366.85 39.214 367.43 41.5578 367.43 44.0909L367.5 77.4489L349 76.9489L349.106 73.7784H348.68L339.305 76.4489C337.34 77.0171 335.367 76.9489 333 76.9489ZM343.495 69.0199C342.193 69.6354 340.796 69.9432 339.305 69.9432C337.648 69.9432 336.286 69.5407 335.221 68.7358C334.156 67.9309 333.623 66.7708 333.623 65.2557C333.623 64.3087 333.848 63.4564 334.298 62.6989C334.771 61.9176 335.481 61.2666 336.428 60.7457C337.399 60.2012 338.642 59.8106 340.157 59.5739C340.938 59.4555 341.684 59.3253 342.394 59.1832C343.128 59.0412 343.815 58.8873 344.454 58.7216C345.117 58.5559 345.732 58.3783 346.3 58.1889C346.892 57.9995 347.449 57.7983 347.969 57.5852V62.1307C347.969 63.7879 347.555 65.1965 346.727 66.3565C345.898 67.5166 344.821 68.4044 343.495 69.0199Z" fill="#EEEEEE"/>
<path d="M288.142 57.5852V26.4489L307.744 25.9489V76.4489H289.136V71.0796H288.568C287.384 74.5597 285.5 74.4489 283.5 74.9489C281.5 75.4489 275.572 76.4489 271.5 76.4489C267.688 76.4489 261.5 75.9489 260 75.4489C258.5 74.9489 256.738 75.3646 255.152 72.2869C253.589 69.2093 252.796 65.6818 252.772 61.7046V26.9034L272.375 26.4489V57.5852C272.398 60.2841 273.085 62.4029 274.434 63.9418C275.807 65.4806 277.725 66.25 280.187 66.25C281.821 66.25 283.229 65.9067 284.413 65.2202C285.62 64.5099 286.544 63.5156 287.183 62.2372C287.846 60.9351 288.165 59.3845 288.142 57.5852Z" fill="#EEEEEE"/>
<path fill-rule="evenodd" clip-rule="evenodd" d="M214.109 103.04C208.641 103.04 203.953 102.259 200.047 100.696C196.164 99.1572 192.654 97.6714 190.5 94.9489C188.369 92.25 187.76 91.4867 187.5 87.983L204.5 87.8054C204.689 88.9654 206.5 90.9489 210 91.4489C213.5 91.9489 214.5 91.9489 216.5 91.4489C218.5 90.9489 220.5 89.4489 221.5 88.4489C222.5 87.4489 223.484 84.5265 223.484 81.3068V72.0739H222.916C222.206 73.9205 221.117 75.4948 219.649 76.7969C218.181 78.0753 216.418 79.0578 214.358 79.7443C212.298 80.4072 210.037 80.7386 207.575 80.7386C203.693 80.7386 200.118 79.839 196.851 78.0398C193.607 76.2405 191.003 73.3878 189.038 69.4815C187.097 65.5753 186.126 60.4735 186.126 54.1761C186.126 47.5947 187.144 42.2443 189.18 38.125C191.24 34.0057 193.892 30.9872 197.135 29.0696C200.402 27.152 203.835 26.1932 207.433 26.1932C210.132 26.1932 212.5 26.6667 214.535 27.6136C216.571 28.5369 218.276 29.7798 219.649 31.3423C221.022 32.8812 222.064 34.5739 222.774 36.4205H223.2V26.9034H242.803V81.3068C242.803 85.9233 241.607 89.8414 239.216 93.0611C236.848 96.3045 233.51 98.7784 229.202 100.483C224.893 102.188 219.862 103.04 214.109 103.04ZM219.436 65.3267C218.158 66.321 216.619 66.8182 214.82 66.8182C213.02 66.8182 211.482 66.3329 210.203 65.3622C208.948 64.3679 207.978 62.9356 207.291 61.0653C206.628 59.1714 206.297 56.875 206.297 54.1761C206.297 51.4773 206.628 49.169 207.291 47.2514C207.978 45.3101 208.948 43.8305 210.203 42.8125C211.482 41.7708 213.02 41.25 214.82 41.25C216.619 41.25 218.158 41.7708 219.436 42.8125C220.738 43.8305 221.732 45.3101 222.419 47.2514C223.129 49.169 223.484 51.4773 223.484 54.1761C223.484 56.8277 223.129 59.1004 222.419 60.9943C221.732 62.8646 220.738 64.3087 219.436 65.3267Z" fill="#EEEEEE"/>
<path d="M142.785 50.7671V78.2263L123.183 78.9489V24.4489L141.79 24.9489V37.2727H142.359C143.542 33.8163 146.017 29.4138 149 27.4489C152.007 25.4839 154.999 24.9489 159 24.9489C162.859 24.9489 166.659 26.1733 169.5 27.9489C172.365 29.7008 174.248 33.0232 175.81 36.1009C177.397 39.1785 178.178 42.6941 178.154 46.6477V77.4489L158.552 77.8157V50.7671C158.576 48.0682 157.889 45.9493 156.492 44.4105C155.119 42.8717 153.201 42.1023 150.739 42.1023C149.13 42.1023 147.721 42.4574 146.513 43.1676C145.33 43.8542 144.418 44.8485 143.779 46.1506C143.14 47.429 142.808 48.9678 142.785 50.7671Z" fill="#EEEEEE"/>
<path fill-rule="evenodd" clip-rule="evenodd" d="M70.4563 79.9489C67.8687 78.9035 65.7879 75.4403 64.2727 73.0966C62.7576 70.7528 62 67.7699 62 64.1477C62 61.1648 62.509 58.6198 63.527 56.5128C64.545 54.3821 65.9654 52.642 67.7884 51.2926C69.6113 49.9432 71.7301 48.9134 74.1449 48.2031C76.5833 47.4929 79.2112 47.0312 82.0284 46.8182C85.0824 46.5814 87.5327 46.2974 89.3793 45.9659C91.2495 45.6108 92.599 45.1255 93.4276 44.5099C94.2562 43.8707 94.6705 43.0303 94.6705 41.9886V41.8466C94.6705 40.4261 94.1259 39.3371 93.0369 38.5795C91.9479 37.822 90.5511 37.4432 88.8466 37.4432C86.9763 37.4432 85.4493 37.8575 84.2656 38.6861C83.1056 39.491 82.4072 40.7339 82.1705 42.4148H64.1307C64.3674 39.1004 65.4209 36.0464 67.2912 33.2528C69.1851 30.4356 71.9432 28.1866 75.5653 26.5057C79.1875 24.8011 83.7093 23.9489 89.1307 23.9489C93.0369 23.9489 96.5407 24.4105 99.642 25.3338C102.743 26.2334 105.383 27.5 107.561 29.1335C109.739 30.7434 111.396 32.6373 112.533 34.8153C113.693 36.9697 114.273 39.3134 114.273 41.8466L113.456 78.9489L95.9489 79.4489V71.5341H95.5227C94.4337 73.5701 93.5188 78.1941 91.9563 79.4489L70.4563 79.9489ZM90.4563 67.4489C89.1542 68.0644 87.4478 68.9489 85.9563 68.9489C84.2991 68.9489 81.5313 68.2538 80.4659 67.4489C79.4006 66.6439 79.4772 64.3863 79.9563 62.9489C80.4563 61.4489 80.6908 61.2121 81.1406 60.4545C81.6141 59.6733 82.3243 59.0223 83.2713 58.5014C84.242 57.9569 85.4848 57.5663 87 57.3295C87.7812 57.2112 88.527 57.081 89.2372 56.9389C89.9711 56.7969 90.6577 56.643 91.2969 56.4773C91.9598 56.3116 92.5753 56.134 93.1435 55.9446C93.7353 55.7552 94.2917 55.554 94.8125 55.3409V59.8864C94.8125 61.5436 94.3982 62.9522 93.5696 64.1122C92.741 65.2723 91.7821 66.8333 90.4563 67.4489Z" fill="#EEEEEE"/>
<path d="M6.6875 82.6713V8.94887L26.4318 10.9489V65.7671H55.8352V80.9489C55.8352 80.9489 36 81.4489 31 81.9489C26 82.4489 6.6875 82.6713 6.6875 82.6713Z" fill="#EEEEEE"/>
<path d="M222 85.6549C147.673 86.2627 73.6651 88.2115 0 91.4782V86.5885C73.6662 83.2929 147.672 81.3144 222 80.6764V85.6549ZM275 80.4489C364.468 80.4489 453.479 82.3918 542 86.236V91.3473C452.654 87.4291 362.811 85.4489 272.5 85.4489C262.995 85.4489 253.495 85.4715 244 85.5153V80.528C254.327 80.4761 264.661 80.4489 275 80.4489Z" fill="#EEEEEE"/>
<path d="M28 14.3922C110.75 17.7508 193.924 19.4489 277.5 19.4489C330.179 19.4489 382.699 18.7745 435.054 17.4352L441 19.7223L433.49 22.5377C382.482 23.8083 331.318 24.4489 280 24.4489C195.583 24.4489 111.575 22.7172 28 19.2926V14.3922ZM478.982 21.234C471.189 21.4857 463.392 21.7245 455.592 21.9469L448 19.2438L456.103 16.859C464.132 16.6261 472.157 16.3759 480.178 16.112L478.982 21.234ZM542 18.8766C534.625 19.1909 527.247 19.4903 519.865 19.778L518.854 14.7174C526.573 14.4147 534.288 14.0991 542 13.7672V18.8766ZM5 13.4147V18.3063C3.3332 18.2317 1.66646 18.1586 0 18.0827V13.193C1.66646 13.2683 3.33319 13.3408 5 13.4147Z" fill="#EEEEEE"/>
</svg>
